# xmcd
#
# Track frame offsets: 
#        150
#        14840
#        31337
#        51329
#        73832
#        89755
#        109806
#        127581
#        140744
#        159869
#        176948
#        192428
#        209534
#        228597
#
# Disc length: 3217 seconds
#
# Revision: 0
# Processed by: cddbd v1.5.2PL0 Copyright (c) Steve Scherf et al.
# Submitted via: ExactAudioCopyFreeDBPlugin 1.0
#
DISCID=d40c8f0e
DTITLE=Elphomega - Phantom Pop
DYEAR=2011
DGENRE=Hip-Hop
TTITLE0=Sol de Sabado, Lluvia de Domingo
TTITLE1=1.000 Problemas
TTITLE2=Summer Breeze (Interviene Masia One)
TTITLE3=Sacrificio
TTITLE4=Acabamos Juntos
TTITLE5=Stardust (Interviene Shabu)
TTITLE6=Azul Mistico
TTITLE7=Primos Raros
TTITLE8=Doppelgänger
TTITLE9=La Gran Ola de Calor
TTITLE10=Alta Ansiedad
TTITLE11=Illpack Debe Morir (Interviene Capaz)
TTITLE12=Ratas de Videoclub
TTITLE13=No Happy Ending
EXTD=
EXTT0=
EXTT1=
EXTT2=
EXTT3=
EXTT4=
EXTT5=
EXTT6=
EXTT7=
EXTT8=
EXTT9=
EXTT10=
EXTT11=
EXTT12=
EXTT13=
PLAYORDER=
